<?xml version="1.0" standalone="no"?>
<!DOCTYPE svg PUBLIC "-//W3C//DTD SVG 20010904//EN"
 "http://www.w3.org/TR/2001/REC-SVG-20010904/DTD/svg10.dtd">
<svg version="1.0" xmlns="http://www.w3.org/2000/svg"
 width="300.000000pt" height="150.000000pt" viewBox="0 0 300.000000 150.000000"
 preserveAspectRatio="xMidYMid meet" stroke="currentColor" fill="currentColor">
<metadata>
Created by potrace 1.10, written by Peter Selinger 2001-2011
</metadata>
<g transform="translate(0.000000,150.000000) scale(0.100000,-0.100000)"
fill="currentColor" stroke="none">
<path d="M391 929 c-77 -31 -121 -96 -121 -179 0 -67 29 -123 82 -157 l42 -28
1106 0 1106 0 42 28 c110 72 110 242 0 314 l-42 28 -1095 2 c-674 1 -1105 -2
-1120 -8z m2225 -28 c63 -29 89 -72 89 -151 0 -79 -26 -122 -89 -151 -39 -18
-89 -19 -1116 -19 -1027 0 -1077 1 -1116 19 -63 29 -89 72 -89 151 0 79 26
122 89 151 39 18 89 19 1116 19 1027 0 1077 -1 1116 -19z"/>
<path d="M2466 805 c-49 -49 -6 -127 61 -110 14 3 31 1 39 -6 8 -7 18 -9 22
-5 4 4 0 13 -8 19 -9 8 -14 24 -12 45 4 42 -21 72 -59 72 -15 0 -34 -7 -43
-15z m72 -17 c7 -7 12 -21 12 -33 0 -48 -49 -60 -76 -20 -16 24 -16 27 1 45
20 23 45 26 63 8z"/>
</g>
</svg>
