<svg xmlns="http://www.w3.org/2000/svg" shape-rendering="geometricPrecision" text-rendering="geometricPrecision" image-rendering="optimizeQuality" fill-rule="evenodd" clip-rule="evenodd" viewBox="0 0 500 511.61"
fill="currentColor" stroke="currentColor"

><path fill-rule="nonzero" d="m281.46 249.66-15.5-101.27c-.57-3.8.47-7.81 3.19-10.93 4.92-5.64 13.5-6.24 19.14-1.32l207.07 180.38 1.53 1.59c4.77 5.76 3.96 14.32-1.8 19.08L288.02 508.53c-2.99 2.41-6.96 3.59-11.03 2.87-7.34-1.32-12.23-8.36-10.91-15.69l15.44-85.83c-17.98-2.09-37.59-6.57-57.77-13.36-52.66-17.69-109.96-51.41-153.32-100.33C26.64 246.79-3.02 181.98.25 102.58 1.42 73.66 7 42.84 17.88 10.23 19.22 4.95 23.7.78 29.43.1c7.44-.88 14.19 4.44 15.06 11.87 11.93 100.08 50.53 158.11 98.25 191.8 42.65 30.12 93.19 41.35 138.72 45.89z"/></svg>