<?xml version="1.0" standalone="no"?>
<!DOCTYPE svg PUBLIC "-//W3C//DTD SVG 20010904//EN"
 "http://www.w3.org/TR/2001/REC-SVG-20010904/DTD/svg10.dtd">
<svg version="1.0" xmlns="http://www.w3.org/2000/svg"
 width="300.000000pt" height="242.000000pt" viewBox="0 0 300.000000 242.000000"
 preserveAspectRatio="xMidYMid meet">
<metadata>
Created by potrace 1.10, written by Peter Selinger 2001-2011
</metadata>
<g transform="translate(0.000000,242.000000) scale(0.100000,-0.100000)"
fill="#000000" stroke="none">
<path d="M2412 2154 c-78 -39 -132 -113 -147 -201 -7 -42 -8 -43 -44 -43 -21
0 -168 -14 -326 -31 -158 -16 -299 -29 -313 -27 -19 2 -28 11 -34 34 -12 46
-85 124 -143 150 -72 34 -172 33 -243 -2 -99 -49 -153 -138 -153 -253 0 -96
47 -190 115 -228 22 -12 34 27 -109 -363 -32 -85 -60 -165 -62 -177 -4 -19
-12 -23 -42 -23 -51 0 -134 -44 -176 -92 -136 -160 -40 -406 170 -434 88 -13
190 32 244 106 15 22 30 37 32 35 3 -2 209 -55 458 -119 l453 -114 18 -52 c41
-121 173 -191 293 -156 63 18 130 72 159 130 56 108 5 271 -102 324 l-41 20
-2 196 c-2 179 0 197 16 202 30 10 77 55 97 95 25 49 26 130 1 184 -17 38 -74
98 -102 107 -9 3 -1 32 29 101 23 54 42 102 42 107 0 6 20 10 44 10 173 0 301
174 252 343 -22 75 -70 135 -135 169 -74 39 -174 40 -249 2z m195 -19 c162
-48 217 -261 100 -383 -109 -114 -278 -100 -367 29 -85 126 -26 304 117 352
61 20 87 21 150 2z m-1210 -134 c49 -24 108 -91 124 -138 19 -60 7 -154 -27
-209 -57 -93 -185 -138 -289 -104 -81 27 -151 118 -162 209 -12 103 59 218
158 254 56 21 142 16 196 -12z m873 -149 c0 -64 101 -179 174 -198 14 -3 26
-7 26 -8 0 -1 -20 -49 -44 -106 -42 -100 -46 -105 -72 -102 -116 15 -240 -115
-221 -232 l5 -33 -141 -32 c-78 -17 -149 -31 -157 -31 -8 1 -90 107 -181 238
l-165 237 28 45 c32 50 48 99 48 148 0 19 5 32 13 32 13 0 435 44 557 59 130
15 130 15 130 -17z m-764 -349 c21 -32 73 -105 115 -163 96 -134 169 -239 169
-244 0 -2 -27 -9 -61 -15 -33 -7 -189 -41 -346 -76 l-286 -63 -41 18 c-23 10
-49 21 -59 24 -16 5 -16 8 -2 43 31 81 157 430 167 461 9 31 12 33 36 25 15
-4 59 -8 97 -8 57 0 78 5 115 27 25 14 48 26 51 27 3 1 23 -25 45 -56z m907
-117 c122 -51 139 -228 29 -301 -73 -48 -148 -45 -209 8 -43 38 -63 81 -63
137 0 121 129 204 243 156z m-216 -310 c35 -37 81 -56 138 -56 l45 0 0 -184 0
-184 -53 -4 c-30 -2 -73 -14 -97 -26 -24 -12 -45 -20 -45 -19 -20 30 -114 164
-162 232 -141 198 -163 230 -163 235 0 3 64 19 143 36 129 28 143 30 155 15 7
-9 25 -29 39 -45z m-230 -226 c214 -304 198 -277 181 -298 -27 -30 -48 -80
-48 -112 0 -22 -4 -31 -14 -28 -8 2 -212 53 -453 113 l-438 110 0 86 c0 79 -2
89 -32 138 -18 29 -33 54 -33 57 0 2 10 4 23 5 12 0 159 31 327 69 168 38 314
68 324 67 12 -1 69 -73 163 -207z m-926 79 c74 -37 119 -114 119 -202 0 -98
-46 -170 -132 -207 -112 -48 -235 -6 -291 100 -25 48 -28 64 -25 121 3 51 10
75 31 108 65 99 193 133 298 80z m1416 -353 c82 -55 115 -172 74 -262 -50
-111 -204 -157 -302 -91 -139 93 -126 295 23 371 52 26 152 18 205 -18z"/>
</g>
</svg>
